<?xml version="1.0" standalone="no"?><!DOCTYPE svg PUBLIC "-//W3C//DTD SVG 1.1//EN" "http://www.w3.org/Graphics/SVG/1.1/DTD/svg11.dtd"><svg t="1714006954233" class="icon" viewBox="0 0 1024 1024" version="1.1" xmlns="http://www.w3.org/2000/svg" p-id="146579" xmlns:xlink="http://www.w3.org/1999/xlink" width="128" height="128"><path d="M814.72 207.232H158.464v609.536h540.458667v-162.56h115.797333v203.178667c0 44.885333-34.56 81.28-77.226667 81.28H119.893333c-42.666667 0-77.226667-36.394667-77.226666-81.28V166.613333C42.666667 121.728 77.226667 85.333333 119.893333 85.333333h617.642667c42.666667 0 77.226667 36.394667 77.226667 81.28v40.618667z m-330.453333 557.226667a39.338667 39.338667 0 0 1-56.021334 0l-211.242666-209.194667a38.570667 38.570667 0 0 1 0-55.424l54.058666-53.461333a39.338667 39.338667 0 0 1 55.978667 0l129.237333 127.829333 404.053334-346.666667a39.338667 39.338667 0 0 1 55.978666 0l54.058667 53.504a38.570667 38.570667 0 0 1 0 55.466667L484.266667 764.458667z" fill="#ffffff" p-id="146580"></path></svg>