<?xml version="1.0" standalone="no"?><!DOCTYPE svg PUBLIC "-//W3C//DTD SVG 1.1//EN" "http://www.w3.org/Graphics/SVG/1.1/DTD/svg11.dtd"><svg t="1713929076543" class="icon" viewBox="0 0 1117 1024" version="1.1" xmlns="http://www.w3.org/2000/svg" p-id="58743" xmlns:xlink="http://www.w3.org/1999/xlink" width="139.625" height="128"><path d="M296.285413 302.329208a97.645545 97.645545 0 1 1 69.514329-28.596196 98.110524 98.110524 0 0 1-69.514329 28.596196z" fill="#FEA832" p-id="58744"></path><path d="M982.594104 696.166241a65.09703 65.09703 0 1 1 46.497879-18.878139 65.562009 65.562009 0 0 1-46.497879 18.878139z" fill="#FEA832" p-id="58745"></path><path d="M885.413537 890.992353h-32.548515v-32.548515a32.548515 32.548515 0 0 0-32.548515-33.013494 33.013494 33.013494 0 0 0-33.013494 33.013494v32.548515h-32.548515a32.781005 32.781005 0 0 0 0 65.562009h32.548515v32.548515a32.781005 32.781005 0 0 0 65.562009 0v-32.548515h32.548515a33.013494 33.013494 0 0 0 33.013494-33.013494 32.548515 32.548515 0 0 0-33.013494-32.548515z" fill="#FEA832" p-id="58746"></path><path d="M1071.405052 45.195938a146.933297 146.933297 0 0 0-221.329903 10.694512l-341.29443 413.366142a33.013494 33.013494 0 0 0 4.649788 40.918134l92.995758 92.995757a33.478473 33.478473 0 0 0 44.172985 2.324894l412.901163-341.29443a151.118106 151.118106 0 0 0 54.402518-107.4101 150.188148 150.188148 0 0 0-46.497879-111.594909z m-92.995757 139.493636a32.548515 32.548515 0 1 1 0-46.497878 32.083536 32.083536 0 0 1 2.789873 42.778048z" fill="#A24F3D" p-id="58747"></path><path d="M1071.405052 45.195938l-92.995757 92.995758a32.874 32.874 0 1 1-46.497879 46.497878l-371.98303 371.983031 46.497879 46.497878a33.478473 33.478473 0 0 0 44.172985 2.324894l412.901163-341.29443a151.118106 151.118106 0 0 0 54.402518-107.4101 150.188148 150.188148 0 0 0-46.497879-111.594909z" fill="#A24F3D" p-id="58748"></path><path d="M718.021174 809.621065h-90.205885l-325.485151-325.485151v-90.205885a163.672533 163.672533 0 0 1 211.100369 23.248939l185.991515 185.991515a163.672533 163.672533 0 0 1 18.599152 206.450582z" fill="#B35C4B" p-id="58749"></path><path d="M718.021174 809.621065h-90.205885l-160.88266-159.952703 139.493636-139.493636 92.995757 92.995757a163.672533 163.672533 0 0 1 18.599152 206.450582z" fill="#B35C4B" p-id="58750"></path><path d="M673.848189 858.443838l-113.919803 116.709675a162.742576 162.742576 0 0 1-232.489394 0l-46.497879-46.497878-46.497878-46.497879-46.497879-46.497879-55.332476-59.052306-37.663282-33.943451-46.497878-46.497879a163.672533 163.672533 0 0 1 0-232.489394l46.497878-46.497879a33.013494 33.013494 0 0 1 46.497879 46.497879 32.874 32.874 0 1 0 46.497879 46.497879l69.746818-67.886903a310.60583 310.60583 0 0 1 46.497879-44.172985l411.506227 411.506227a364.543369 364.543369 0 0 1-41.848091 48.822773z" fill="#FEDB41" p-id="58751"></path><path d="M673.848189 858.443838l-113.919803 116.709675a162.742576 162.742576 0 0 1-232.489394 0l-46.497879-46.497878-46.497878-46.497879 278.987272-278.987273 205.985603 205.520624a364.543369 364.543369 0 0 1-45.567921 49.752731z" fill="#FEDB41" p-id="58752"></path><path d="M420.43475 882.157756a33.013494 33.013494 0 0 0-46.497879 0 97.180567 97.180567 0 0 1-139.493636 0l92.995757 92.995757a161.812618 161.812618 0 0 0 92.995758-46.497878 32.548515 32.548515 0 0 0 0-46.497879z" fill="#FEA832" p-id="58753"></path><path d="M280.941113 742.66412a33.013494 33.013494 0 0 0-46.497878 0 98.575503 98.575503 0 0 1-139.493637 0l92.995758 92.995757a161.812618 161.812618 0 0 0 92.995757-46.497879 32.548515 32.548515 0 0 0 0-46.497878z" fill="#FEA832" p-id="58754"></path></svg>