<?xml version="1.0" standalone="no"?><!DOCTYPE svg PUBLIC "-//W3C//DTD SVG 1.1//EN" "http://www.w3.org/Graphics/SVG/1.1/DTD/svg11.dtd"><svg t="1713947940720" class="icon" viewBox="0 0 1024 1024" version="1.1" xmlns="http://www.w3.org/2000/svg" p-id="88116" xmlns:xlink="http://www.w3.org/1999/xlink" width="128" height="128"><path d="M64 752h566.7c12.372-28.224 40.562-48 73.3-48s60.93 19.776 73.3 48H960v64H777.3c-12.372 28.224-40.562 48-73.3 48s-60.93-19.776-73.3-48H64M64 480h182.7c12.372-28.224 40.562-48 73.3-48s60.93 19.776 73.3 48H960v64H393.3c-12.372 28.224-40.562 48-73.3 48s-60.93-19.776-73.3-48H64M64 208h566.7c12.372-28.224 40.562-48 73.3-48s60.93 19.776 73.3 48H960v64H777.3c-12.372 28.224-40.562 48-73.3 48s-60.93-19.776-73.3-48H64" p-id="88117" fill="#ffffff"></path></svg>