<?xml version="1.0" standalone="no"?><!DOCTYPE svg PUBLIC "-//W3C//DTD SVG 1.1//EN" "http://www.w3.org/Graphics/SVG/1.1/DTD/svg11.dtd"><svg t="1713927508316" class="icon" viewBox="0 0 1024 1024" version="1.1" xmlns="http://www.w3.org/2000/svg" p-id="30977" xmlns:xlink="http://www.w3.org/1999/xlink" width="128" height="128"><path d="M510.18819302 1024.45068728a33.27639 33.27639 0 0 1-33.19534421-33.48494404 33.583556 33.583556 0 0 1 33.62974395-33.34014413A444.316592 444.316592 0 0 0 826.8290639 826.90761781c73.84787685-73.84787685 118.33760222-169.16231775 128.36498591-268.82075106l1.95479599-48.36311914a33.583556 33.583556 0 0 1 34.71574259-32.18174624 33.27639 33.27639 0 0 1 32.03694633 34.57094267l-2.06339628 50.35411546A511.176537 511.176537 0 0 1 873.99758482 874.07613873a511.43251 511.43251 0 0 1-363.8093918 150.37454855z m434.86987282-786.29888553a33.481167 33.481167 0 0 1-56.43570542 36.09133964 443.139119 443.139119 0 0 0-578.07683348-155.04434114A33.327584 33.327584 0 1 1 279.95657761 59.93949937a509.58951 509.58951 0 0 1 665.02908827 178.28470233zM80.67591061 415.31430511a443.036731 443.036731 0 0 0 189.97728217 471.10601307 33.481167 33.481167 0 0 1-36.59813862 56.07370634A509.999065 509.999065 0 0 1 27.78779951 356.41700401C42.6659746 301.71889543 90.01549506 203.97905918 147.10280008 153.69734297c4.85079141-7.23998784 12.70617853-12.70617853 22.29916247-13.90077745 8.18118657-0.94119802 15.60217395 1.48419733 22.1905629 6.47979007 2.09959661 1.73759754 3.4027937 3.98199335 4.95939169 6.40738941a22.832723 22.832723 0 0 1 3.07699496 14.08177558L215.73788504 457.19763559a28.208139 28.208139 0 0 1-16.32617281 26.10015629 30.204723 30.204723 0 0 1-31.49394701-2.02719666l-87.27805424-65.99248973z m551.79567836 558.81846634c-2.42539606 1.77379716 17.30357115 27.58435362-11.65638093 36.99633874-51.51251405 16.68817258-166.8817216 28.5979523-243.0101939 4.38019275a31.331001 31.331001 0 0 1-23.31276115-11.94598005c-5.06799128-6.51598899-6.80558881-14.19037586-5.90058971-22.33536351 0.39819941-2.71499518 1.62899795-4.9593917 2.93219504-7.56578659a22.832723 22.832723 0 0 1 10.46178201-9.88258377l240.69339812-163.3703269c8.72418518-5.97298967 20.92356543-5.71959018 30.76994816 0.50679898a30.204723 30.204723 0 0 1 14.51617602 28.05495299l-15.52977399 145.19795769z m197.97746921-815.54843673c2.78739513 1.19459751 14.73337518-28.99615171 37.68413655-9.01378501 40.8697318 35.58453994 110.55461506 128.29258524 128.90798452 206.01385516a31.331001 31.331001 0 0 1 1.84619711 26.17255695 29.999945 29.999945 0 0 1-16.14517256 16.5795723c-2.53399564 1.08599793-5.1041909 1.12219826-8.03638665 1.37559775a22.832723 22.832723 0 0 1-13.8283775-3.9095941l-264.04235819-122.13859533a28.208139 28.208139 0 0 1-15.34877516-26.6431556 30.204723 30.204723 0 0 1 16.54337337-26.8965551l132.45557813-61.5036974z" fill="#10c7c7" p-id="30978"></path></svg>